name ./resultDataOpenSim/trcMotMarkerGrf/sub09/grf-15-02.mot
datacolumns 19
datarows 10
range 1.02800000 1.06400000
endheader

                time	     ground_force_vx	     ground_force_vy	     ground_force_vz	     ground_force_px	     ground_force_py	     ground_force_pz	   l_ground_force_vx	   l_ground_force_vy	   l_ground_force_vz	   l_ground_force_px	   l_ground_force_py	   l_ground_force_pz	     ground_torque_x	     ground_torque_y	     ground_torque_z	   l_ground_torque_x	   l_ground_torque_y	   l_ground_torque_z	
          1.02800000	          0.00000000	          0.00000000	          0.00000000	          0.00000000	          0.00000000	          0.00000000	         16.82198793	        431.46623705	         -2.61125533	          0.15241969	         -0.10000000	          0.03210170	          0.00000000	          0.00000000	          0.00000000	          0.00000000	         -3.77617709	          0.00000000	
          1.03200000	          0.00000000	          0.00000000	          0.00000000	          0.00000000	          0.00000000	          0.00000000	         19.71999538	        436.90724692	         -1.18033655	          0.15294783	         -0.10000000	          0.03239588	          0.00000000	          0.00000000	          0.00000000	          0.00000000	         -3.88456993	          0.00000000	
          1.03600000	          0.00000000	          0.00000000	          0.00000000	          0.00000000	          0.00000000	          0.00000000	         23.01909791	        443.16160562	          0.27136240	          0.15358703	         -0.10000000	          0.03275158	          0.00000000	          0.00000000	          0.00000000	          0.00000000	         -4.01162442	          0.00000000	
          1.04000000	          0.00000000	          0.00000000	          0.00000000	          0.00000000	          0.00000000	          0.00000000	         26.70342443	        450.15750734	          1.70727499	          0.15430240	         -0.10000000	          0.03317067	          0.00000000	          0.00000000	          0.00000000	          0.00000000	         -4.15647715	          0.00000000	
          1.04400000	          0.00000000	          0.00000000	          0.00000000	          0.00000000	          0.00000000	          0.00000000	         30.70422233	        457.75405201	          3.09708941	          0.15501540	         -0.10000000	          0.03362501	          0.00000000	          0.00000000	          0.00000000	          0.00000000	         -4.31691417	          0.00000000	
          1.04800000	          0.00000000	          0.00000000	          0.00000000	          0.00000000	          0.00000000	          0.00000000	         34.91061527	        465.76116213	          4.39014480	          0.15562921	         -0.10000052	          0.03406427	          0.00000000	          0.00000000	          0.00000000	          0.00000000	         -4.48997329	          0.00000000	
          1.05200000	          0.00000000	          0.00000000	          0.00000000	          0.00000000	          0.00000000	          0.00000000	         39.19532196	        473.99381596	          5.51055140	          0.15606297	         -0.10000100	          0.03443450	          0.00000000	          0.00000000	          0.00000000	          0.00000000	         -4.67231758	          0.00000000	
          1.05600000	          0.00000000	          0.00000000	          0.00000000	          0.00000000	          0.00000000	          0.00000000	         43.45008954	        482.30462694	          6.40046292	          0.15628846	         -0.10000100	          0.03470690	          0.00000000	          0.00000000	          0.00000000	          0.00000000	         -4.86030302	          0.00000000	
          1.06000000	          0.00000000	          0.00000000	          0.00000000	          0.00000000	          0.00000000	          0.00000000	         47.61011616	        490.59460077	          7.06469928	          0.15635659	         -0.10000100	          0.03490299	          0.00000000	          0.00000000	          0.00000000	          0.00000000	         -5.04997292	          0.00000000	
          1.06400000	          0.00000000	          0.00000000	          0.00000000	          0.00000000	          0.00000000	          0.00000000	         51.65759412	        498.82758661	          7.55636688	          0.15638254	         -0.10000100	          0.03508363	          0.00000000	          0.00000000	          0.00000000	          0.00000000	         -5.23720898	          0.00000000	
